<svg xmlns="http://www.w3.org/2000/svg" style="display: none;">

    <symbol id="calendar" viewBox="0 0 20 20">
        <path
            d="M5.00001 0C4.6055 0 4.28571 0.319796 4.28571 0.714299V2.14286H5.71426V0.714299C5.71426 0.319796 5.39447 0 5.00001 0Z M15 0C14.6055 0 14.2857 0.319796 14.2857 0.714299V2.14286H15.7143V0.714299C15.7143 0.319796 15.3945 0 15 0Z M17.8571 2.14282H15.7143V4.99998C15.7143 5.39448 15.3945 5.71428 15 5.71428C14.6055 5.71428 14.2857 5.39448 14.2857 4.99998V2.14282H5.71427V4.99998C5.71427 5.39448 5.39447 5.71428 4.99997 5.71428C4.60547 5.71428 4.28567 5.39448 4.28567 4.99998V2.14282H2.14286C0.959388 2.14282 0 3.10221 0 4.28568V17.8571C0 19.0406 0.959388 20 2.14286 20H17.8571C19.0406 20 20 19.0406 20 17.8571V4.28568C20 3.10221 19.0406 2.14282 17.8571 2.14282ZM18.5714 17.8571C18.5714 18.2516 18.2516 18.5714 17.8571 18.5714H2.14286C1.74835 18.5714 1.42856 18.2516 1.42856 17.8571V8.57139H18.5714V17.8571Z M5.71427 10H4.28571C3.89121 10 3.57141 10.3198 3.57141 10.7143C3.57141 11.1088 3.89121 11.4286 4.28571 11.4286H5.71427C6.10877 11.4286 6.42856 11.1088 6.42856 10.7143C6.42856 10.3198 6.10877 10 5.71427 10Z M10.7143 10H9.28571C8.89121 10 8.57141 10.3198 8.57141 10.7143C8.57141 11.1088 8.89121 11.4286 9.28571 11.4286H10.7143C11.1088 11.4286 11.4286 11.1088 11.4286 10.7143C11.4286 10.3198 11.1088 10 10.7143 10Z M15.7143 10H14.2857C13.8912 10 13.5714 10.3198 13.5714 10.7143C13.5714 11.1088 13.8912 11.4286 14.2857 11.4286H15.7143C16.1088 11.4286 16.4286 11.1088 16.4286 10.7143C16.4286 10.3198 16.1087 10 15.7143 10Z M5.71427 12.8572H4.28571C3.89121 12.8572 3.57141 13.177 3.57141 13.5715C3.57141 13.966 3.89121 14.2858 4.28571 14.2858H5.71427C6.10877 14.2858 6.42856 13.966 6.42856 13.5715C6.42856 13.177 6.10877 12.8572 5.71427 12.8572Z M10.7143 12.8572H9.28571C8.89121 12.8572 8.57141 13.177 8.57141 13.5715C8.57141 13.966 8.89121 14.2858 9.28571 14.2858H10.7143C11.1088 14.2858 11.4286 13.966 11.4286 13.5715C11.4286 13.177 11.1088 12.8572 10.7143 12.8572Z M15.7143 12.8572H14.2857C13.8912 12.8572 13.5714 13.177 13.5714 13.5715C13.5714 13.966 13.8912 14.2858 14.2857 14.2858H15.7143C16.1088 14.2858 16.4286 13.966 16.4286 13.5715C16.4285 13.177 16.1087 12.8572 15.7143 12.8572Z M5.71427 15.7142H4.28571C3.89121 15.7142 3.57141 16.034 3.57141 16.4285C3.57141 16.823 3.89121 17.1428 4.28571 17.1428H5.71427C6.10877 17.1428 6.42856 16.823 6.42856 16.4285C6.42856 16.034 6.10877 15.7142 5.71427 15.7142Z M10.7143 15.7142H9.28571C8.89121 15.7142 8.57141 16.034 8.57141 16.4285C8.57141 16.823 8.89121 17.1428 9.28571 17.1428H10.7143C11.1088 17.1428 11.4286 16.823 11.4286 16.4285C11.4286 16.034 11.1088 15.7142 10.7143 15.7142Z M15.7143 15.7142H14.2857C13.8912 15.7142 13.5714 16.034 13.5714 16.4285C13.5714 16.823 13.8912 17.1428 14.2857 17.1428H15.7143C16.1088 17.1428 16.4286 16.823 16.4286 16.4285C16.4286 16.034 16.1087 15.7142 15.7143 15.7142Z" />
    </symbol>
    <symbol id="users" viewBox="0 0 20 20">
        <g transform="translate(0, 3)">
            <path
                d="M3 6C4.10312 6 5 5.10312 5 4C5 2.89688 4.10312 2 3 2C1.89688 2 1 2.89688 1 4C1 5.10312 1.89688 6 3 6ZM17 6C18.1031 6 19 5.10312 19 4C19 2.89688 18.1031 2 17 2C15.8969 2 15 2.89688 15 4C15 5.10312 15.8969 6 17 6ZM18 7H16C15.45 7 14.9531 7.22188 14.5906 7.58125C15.85 8.27188 16.7438 9.51875 16.9375 11H19C19.5531 11 20 10.5531 20 10V9C20 7.89688 19.1031 7 18 7ZM10 7C11.9344 7 13.5 5.43438 13.5 3.5C13.5 1.56562 11.9344 0 10 0C8.06562 0 6.5 1.56562 6.5 3.5C6.5 5.43438 8.06562 7 10 7ZM12.4 8H12.1406C11.4906 8.3125 10.7688 8.5 10 8.5C9.23125 8.5 8.5125 8.3125 7.85938 8H7.6C5.6125 8 4 9.6125 4 11.6V12.5C4 13.3281 4.67188 14 5.5 14H14.5C15.3281 14 16 13.3281 16 12.5V11.6C16 9.6125 14.3875 8 12.4 8ZM5.40938 7.58125C5.04688 7.22188 4.55 7 4 7H2C0.896875 7 0 7.89688 0 9V10C0 10.5531 0.446875 11 1 11H3.05938C3.25625 9.51875 4.15 8.27188 5.40938 7.58125Z" />
        </g>
    </symbol>
    <symbol id="file" viewBox="0 0 20 20">
        <g transform="translate(2, 0)">
            <path
                d="M12 9.99927H4V12.4993H12V9.99927ZM15.7083 4.10083L11.6292 0.272705C11.4417 0.0969238 11.1875 -0.000732422 10.9208 -0.000732422H10.6667V4.99927H16V4.76099C16 4.51489 15.8958 4.27661 15.7083 4.10083ZM9.33333 5.31177V-0.000732422H1C0.445833 -0.000732422 0 0.417236 0 0.936768V19.0618C0 19.5813 0.445833 19.9993 1 19.9993H15C15.5542 19.9993 16 19.5813 16 19.0618V6.24927H10.3333C9.78333 6.24927 9.33333 5.82739 9.33333 5.31177ZM2.66667 2.81177C2.66667 2.63911 2.81583 2.49927 3 2.49927H6.33333C6.5175 2.49927 6.66667 2.63911 6.66667 2.81177V3.43677C6.66667 3.60942 6.5175 3.74927 6.33333 3.74927H3C2.81583 3.74927 2.66667 3.60942 2.66667 3.43677V2.81177ZM2.66667 5.31177C2.66667 5.13911 2.81583 4.99927 3 4.99927H6.33333C6.5175 4.99927 6.66667 5.13911 6.66667 5.31177V5.93677C6.66667 6.10942 6.5175 6.24927 6.33333 6.24927H3C2.81583 6.24927 2.66667 6.10942 2.66667 5.93677V5.31177ZM13.3333 17.1868C13.3333 17.3594 13.1842 17.4993 13 17.4993H9.66667C9.4825 17.4993 9.33333 17.3594 9.33333 17.1868V16.5618C9.33333 16.3891 9.4825 16.2493 9.66667 16.2493H13C13.1842 16.2493 13.3333 16.3891 13.3333 16.5618V17.1868ZM13.3333 9.37427V13.1243C13.3333 13.4696 13.035 13.7493 12.6667 13.7493H3.33333C2.965 13.7493 2.66667 13.4696 2.66667 13.1243V9.37427C2.66667 9.02896 2.965 8.74927 3.33333 8.74927H12.6667C13.035 8.74927 13.3333 9.02896 13.3333 9.37427Z" />
        </g>
    </symbol>
    <symbol id="play" viewBox="0 0 20 20">
        <g transform="translate(3, 2)">
            <path
                d="M13.25 7.49707C13.5831 7.68955 13.5831 8.16982 13.25 8.3623L1.25 15.291C0.916675 15.4834 0.5 15.2423 0.5 14.8574L0.500001 1.00195C0.500001 0.61707 0.916676 0.37596 1.25 0.568359L13.25 7.49707Z"
                fill="#23BDEE" />
        </g>
    </symbol>
    <symbol id="levels" viewBox="0 0 20 20">
        <rect width="20" height="20" rx="5" />
        <path d="M9.80957 4V15" stroke="#F25471" stroke-width="2" stroke-linecap="round" />
        <path d="M6 5.96428L6 15" stroke="#F25471" stroke-width="2" stroke-linecap="round" />
        <path d="M13.619 8.32143V15" stroke="#F25471" stroke-width="2" stroke-linecap="round" />
    </symbol>
    <symbol id="envelope" viewBox="0 0 20 20">
        <g transform="translate(0, 2)">
            <path
                d="M19.959 0H0.0714111L10.0152 8.71426L20.0714 0.0244143C20.0346 0.0129701 19.997 0.00481609 19.959 0Z"
            />
            <path
                d="M10.4507 9.94933C10.1875 10.1975 9.80888 10.1975 9.54571 9.94933L0 0.89209V15.0694C0 15.5238 0.319796 15.8921 0.714299 15.8921H19.2857C19.6802 15.8921 20 15.5238 20 15.0694V1.01385L10.4507 9.94933Z"
            />
        </g>
    </symbol>
    <symbol id="hand" viewBox="0 0 20 20">
        <g transform="translate(2.5, 0)">
            <path
                d="M14.4305 8.53929C13.9541 8.11876 13.2795 7.98418 12.7116 8.19628C12.5594 8.25319 12.4181 8.33299 12.2915 8.43355C11.9686 8.69005 11.2518 9.46001 10.6837 10.222V4.34817C10.6837 3.8489 10.4937 3.36092 10.1623 3.00921C9.83334 2.66009 9.40123 2.4718 8.94778 2.48095C8.7419 2.48492 8.54463 2.52902 8.36235 2.60607V2.03234C8.36235 1.48898 8.15548 0.957822 7.79458 0.574827C7.43694 0.195189 6.96893 -0.00943153 6.47393 0.000334097C5.48705 0.0187972 4.68133 0.885037 4.65179 1.944C4.438 1.83932 4.20583 1.78057 3.96547 1.77279C3.46412 1.75692 2.96757 1.96643 2.60356 2.34805C2.24705 2.72174 2.05063 3.21505 2.05063 3.73568L2.04936 4.29201C1.89548 4.23739 1.73142 4.20748 1.56087 4.20748C0.700171 4.20748 0 4.96355 0 5.89281L0.000565224 14.4313L0.00183697 14.4717C0.0737617 15.5924 0.290949 16.5518 0.647605 17.3236C0.981935 18.0472 1.44839 18.6298 2.03396 19.0552C3.18631 19.8926 4.60983 20 5.7212 20C7.90367 20 9.86712 18.8283 10.8491 16.9411C10.9685 16.7333 11.2831 16.1989 11.623 15.6226C11.9539 15.061 12.2618 14.5436 12.5333 14.0871C12.6825 13.8361 12.8183 13.6078 12.9361 13.4088C13.3752 12.6674 13.843 11.9486 14.3269 11.2721C14.5063 11.0213 14.5616 10.9532 14.5742 10.9383C14.8007 10.6714 14.9434 10.3447 14.9869 9.9933C15.0554 9.442 14.8525 8.91191 14.4305 8.53929ZM13.9102 9.83766C13.8962 9.94997 13.8488 10.0565 13.7732 10.1456C13.7338 10.1921 13.6633 10.2806 13.4672 10.555C12.9637 11.2587 12.477 12.0062 12.0208 12.7768C11.9032 12.9753 11.768 13.2027 11.619 13.4531C11.347 13.9105 11.0387 14.4292 10.7065 14.9925C10.3587 15.5824 10.0368 16.1289 9.91898 16.3344L9.90668 16.357C9.11862 17.8804 7.51494 18.8268 5.72134 18.8268C4.76427 18.8268 3.54904 18.7421 2.64059 18.082C1.71362 17.4085 1.20548 16.2076 1.08707 14.4107L1.0865 5.89297C1.0865 5.61053 1.29931 5.38073 1.56087 5.38073C1.82398 5.38073 2.03806 5.61053 2.03806 5.89297V9.0883C2.03806 9.09776 2.03905 9.10692 2.03933 9.11638C2.03989 9.12676 2.03989 9.13728 2.04088 9.14766C2.04173 9.15697 2.04343 9.16597 2.0447 9.17513C2.04611 9.18535 2.0471 9.19573 2.04894 9.20595C2.05077 9.2151 2.05332 9.22411 2.05544 9.23311C2.0577 9.24272 2.05954 9.25264 2.06236 9.2621C2.0649 9.27126 2.0683 9.28011 2.0714 9.28896C2.07437 9.29796 2.07706 9.30711 2.08059 9.31596C2.08398 9.32481 2.08808 9.33321 2.09189 9.34175C2.09571 9.3503 2.09924 9.35899 2.10334 9.36739C2.10744 9.37563 2.11238 9.38356 2.11691 9.39165C2.12143 9.39973 2.12567 9.40797 2.13047 9.41576C2.13542 9.42354 2.14093 9.43086 2.14616 9.43834C2.15138 9.44597 2.15619 9.45375 2.1617 9.46092C2.16721 9.46809 2.17329 9.47466 2.17894 9.48152C2.18487 9.48854 2.19053 9.49602 2.19674 9.50273C2.20282 9.50914 2.20918 9.51494 2.21554 9.52119C2.22204 9.5276 2.2284 9.53447 2.23532 9.54057C2.24182 9.54637 2.24874 9.55156 2.25553 9.55705C2.26273 9.56285 2.26966 9.56895 2.27701 9.57445C2.28393 9.57948 2.29128 9.58376 2.29834 9.58833C2.30611 9.59352 2.31374 9.59901 2.3218 9.6039C2.32915 9.60817 2.33692 9.61168 2.34441 9.61565C2.3526 9.62007 2.3608 9.62465 2.36928 9.62862C2.37705 9.63228 2.38539 9.63503 2.3933 9.63823C2.40192 9.64159 2.4104 9.6454 2.41916 9.64845C2.4275 9.6512 2.43626 9.65318 2.44474 9.65562C2.45364 9.65807 2.46226 9.66097 2.47116 9.66295C2.4802 9.66493 2.48925 9.666 2.49829 9.66753C2.50733 9.6689 2.51609 9.67088 2.52514 9.67195C2.53418 9.67287 2.54351 9.67302 2.55269 9.67348C2.56174 9.67394 2.57078 9.675 2.57997 9.675C2.58039 9.675 2.58095 9.675 2.58138 9.675C2.60017 9.675 2.61868 9.67394 2.63691 9.67195C2.64482 9.67119 2.6526 9.66936 2.66051 9.66814C2.67054 9.66661 2.68086 9.66539 2.69075 9.6631C2.70121 9.66081 2.71124 9.65761 2.72141 9.65471C2.72848 9.65257 2.73583 9.65105 2.74275 9.64876C2.75405 9.64494 2.76508 9.64021 2.7761 9.63564C2.78147 9.63335 2.78726 9.63152 2.79263 9.62907C2.80365 9.62404 2.81411 9.61809 2.82471 9.61244C2.82979 9.6097 2.83502 9.60741 2.84011 9.60451C2.85 9.59871 2.85933 9.592 2.86879 9.58559C2.87416 9.58208 2.87968 9.57887 2.88476 9.57506C2.89352 9.5688 2.90186 9.56163 2.9102 9.55461C2.91571 9.55019 2.92136 9.54607 2.92659 9.54134C2.93436 9.53462 2.94143 9.52699 2.94877 9.51967C2.95428 9.51433 2.95994 9.50914 2.96531 9.50365C2.97209 9.49632 2.97817 9.48839 2.98452 9.48076C2.98975 9.4745 2.9954 9.4684 3.00035 9.46199C3.006 9.45451 3.01109 9.44658 3.01646 9.4388C3.02155 9.43147 3.02692 9.42445 3.03158 9.41682C3.03652 9.40904 3.04062 9.40096 3.04514 9.39287C3.04967 9.38478 3.05461 9.37685 3.05885 9.36861C3.06295 9.36037 3.06634 9.35182 3.07016 9.34343C3.07397 9.33473 3.07821 9.32619 3.08174 9.31734C3.08513 9.30879 3.08768 9.29979 3.09065 9.29109C3.0939 9.28194 3.09729 9.27293 3.10011 9.26347C3.10266 9.25447 3.10449 9.24532 3.10661 9.23616C3.10887 9.22655 3.11156 9.21709 3.11354 9.20732C3.11523 9.19817 3.11622 9.18855 3.11749 9.17909C3.11905 9.16918 3.12074 9.15926 3.12173 9.14919C3.12272 9.13973 3.12272 9.12996 3.12315 9.12035C3.12371 9.11012 3.1247 9.10021 3.1247 9.08998L3.13728 3.73721C3.13728 3.53518 3.21655 3.34078 3.3604 3.18987C3.51499 3.02798 3.72412 2.93856 3.93339 2.94558C4.32538 2.95825 4.6443 3.32644 4.6443 3.76727L4.65052 9.05733C4.65052 9.06801 4.65151 9.07839 4.65208 9.08876C4.6525 9.09807 4.6525 9.10768 4.65335 9.11684C4.65434 9.12782 4.65632 9.13835 4.65787 9.14903C4.65914 9.15773 4.65999 9.16658 4.66154 9.17513C4.6638 9.18672 4.66691 9.19801 4.66974 9.20931C4.67158 9.21663 4.67299 9.22411 4.67497 9.23128C4.6785 9.24349 4.68302 9.25539 4.68726 9.26729C4.68938 9.27324 4.69094 9.27934 4.6932 9.28514C4.69828 9.29781 4.70408 9.31017 4.70987 9.32237C4.71213 9.32695 4.71383 9.33183 4.71609 9.33626C4.72245 9.34892 4.72965 9.36098 4.73672 9.37288C4.73898 9.37685 4.74096 9.38081 4.74336 9.38463C4.75085 9.39668 4.75905 9.40797 4.76724 9.41927C4.76978 9.42278 4.77205 9.42644 4.77459 9.42979C4.78377 9.44185 4.79367 9.45314 4.8037 9.46428C4.80582 9.46672 4.80751 9.46916 4.80963 9.47145C4.81995 9.48259 4.83097 9.49297 4.84213 9.50319C4.84425 9.50517 4.84609 9.50731 4.84821 9.50929C4.85937 9.51921 4.87096 9.52821 4.88269 9.53706C4.88523 9.53905 4.88749 9.54118 4.89004 9.54301C4.90191 9.55171 4.91434 9.55949 4.92678 9.56712C4.92946 9.5688 4.932 9.57079 4.93483 9.57246C4.94783 9.57994 4.96125 9.58665 4.97482 9.59322C4.97736 9.59444 4.97977 9.59596 4.98231 9.59718C4.99616 9.60344 5.01043 9.60878 5.02484 9.61397C5.02739 9.61473 5.02965 9.61595 5.03219 9.61687C5.04646 9.6216 5.06102 9.62541 5.07557 9.62892C5.07854 9.62953 5.08136 9.6306 5.08433 9.63136C5.11966 9.63915 5.15626 9.64326 5.1937 9.64326C5.19398 9.64326 5.19427 9.64326 5.19455 9.64326C5.20402 9.64326 5.21334 9.6422 5.22267 9.64174C5.23171 9.64113 5.24076 9.64113 5.24966 9.64021C5.25955 9.63899 5.26902 9.63701 5.27877 9.63533C5.28696 9.63396 5.29544 9.63304 5.30364 9.63121C5.31339 9.62907 5.32286 9.62602 5.33246 9.62328C5.34024 9.62099 5.34801 9.61931 5.35564 9.61671C5.36539 9.61351 5.37472 9.60939 5.38418 9.60542C5.39125 9.60252 5.3986 9.60024 5.40552 9.59703C5.41527 9.59245 5.42474 9.58711 5.43421 9.58208C5.44042 9.57872 5.44692 9.57582 5.453 9.57231C5.46233 9.56682 5.47123 9.56041 5.48027 9.55446C5.48606 9.55049 5.49214 9.54698 5.49779 9.54286C5.50641 9.53661 5.51447 9.52959 5.52266 9.52272C5.52831 9.51814 5.53411 9.51387 5.53962 9.50899C5.54739 9.50212 5.55474 9.49434 5.56223 9.48686C5.56746 9.48167 5.57297 9.47664 5.5782 9.47115C5.58512 9.46352 5.59162 9.45528 5.59826 9.44734C5.60321 9.44139 5.60844 9.43575 5.61324 9.42949C5.61917 9.42156 5.62454 9.41316 5.63006 9.40508C5.63486 9.39806 5.63995 9.39134 5.64447 9.38432C5.64956 9.37624 5.65379 9.36769 5.65846 9.3593C5.66284 9.35152 5.66764 9.34389 5.6716 9.33595C5.67584 9.32756 5.67923 9.31871 5.68305 9.31017C5.68686 9.30162 5.6911 9.29338 5.69449 9.28453C5.69774 9.27614 5.70043 9.26729 5.70325 9.25859C5.7065 9.24928 5.71003 9.24013 5.71272 9.23067C5.71526 9.22151 5.7171 9.2122 5.71936 9.2029C5.72162 9.19344 5.72431 9.18413 5.726 9.17452C5.72784 9.1649 5.72883 9.15498 5.73024 9.14537C5.73151 9.13561 5.73335 9.12599 5.7342 9.11623C5.73519 9.10631 5.73519 9.09624 5.73561 9.08617C5.73618 9.07625 5.73702 9.06664 5.73702 9.05657V2.00427C5.73702 1.55383 6.07616 1.18121 6.49287 1.17343C6.69395 1.17038 6.88499 1.2543 7.03322 1.41162C7.18753 1.57534 7.27599 1.80163 7.27599 2.03234V9.08891C7.27599 9.0996 7.27698 9.10997 7.27754 9.1205C7.27797 9.12981 7.27797 9.13927 7.27881 9.14858C7.2798 9.15895 7.28178 9.16902 7.28319 9.17925C7.28461 9.18855 7.28546 9.19786 7.28715 9.20686C7.28913 9.21709 7.29196 9.22701 7.29436 9.23708C7.29648 9.24577 7.29803 9.25447 7.30057 9.26302C7.30368 9.27385 7.30764 9.28438 7.31131 9.29491C7.31386 9.30223 7.31598 9.30971 7.3188 9.31688C7.32318 9.32787 7.32827 9.33839 7.33322 9.34908C7.33604 9.35533 7.33859 9.36189 7.3417 9.36815C7.34706 9.37898 7.35328 9.38921 7.35936 9.39958C7.36261 9.40508 7.36543 9.41103 7.36897 9.41652C7.37547 9.4269 7.38267 9.43681 7.38988 9.44673C7.39341 9.45161 7.39652 9.4568 7.4002 9.46153C7.40811 9.47206 7.41687 9.48183 7.42549 9.49175C7.42888 9.49541 7.43185 9.49953 7.43524 9.50319C7.44414 9.51296 7.45375 9.52181 7.46336 9.53081C7.46689 9.53416 7.47014 9.53783 7.47382 9.54103C7.48456 9.55064 7.49586 9.55934 7.50716 9.56804C7.50999 9.57018 7.51268 9.57262 7.51564 9.57491C7.5278 9.58376 7.54051 9.59184 7.55337 9.59962C7.55577 9.601 7.55789 9.60283 7.5603 9.6042C7.57443 9.61244 7.58884 9.61977 7.60368 9.62679C7.60509 9.6274 7.60636 9.62831 7.60777 9.62892C7.62318 9.63594 7.639 9.64204 7.65511 9.64754C7.65596 9.648 7.65681 9.6483 7.6578 9.64861C7.69157 9.66005 7.72675 9.66783 7.76307 9.67195C7.76335 9.67195 7.76349 9.67195 7.76378 9.67195C7.782 9.67394 7.80052 9.675 7.81931 9.675C7.81945 9.675 7.81959 9.675 7.81987 9.675C7.82948 9.675 7.83895 9.67394 7.84856 9.67348C7.85746 9.67287 7.86636 9.67287 7.87513 9.67195C7.88516 9.67088 7.89491 9.66875 7.9048 9.66707C7.91285 9.6657 7.92105 9.66478 7.9291 9.66295C7.9397 9.66066 7.94988 9.6573 7.96019 9.6544C7.96712 9.65242 7.97432 9.65089 7.9811 9.64861C7.99213 9.64479 8.00272 9.64021 8.01346 9.63579C8.01926 9.63335 8.02519 9.63136 8.03099 9.62877C8.04187 9.62373 8.05232 9.61794 8.06292 9.61214C8.06801 9.60939 8.07338 9.6071 8.07846 9.60405C8.08878 9.59795 8.09867 9.59108 8.1087 9.58421C8.11351 9.58101 8.11845 9.57811 8.12326 9.5746C8.13343 9.56728 8.1429 9.55904 8.15251 9.55095C8.15661 9.54759 8.16099 9.54439 8.16509 9.54088C8.17455 9.53233 8.18345 9.52303 8.1925 9.51387C8.19617 9.51021 8.20013 9.50685 8.20352 9.50304C8.21228 9.49358 8.22048 9.48351 8.22853 9.47328C8.23192 9.46931 8.23546 9.4655 8.23871 9.46138C8.24648 9.45116 8.25354 9.44032 8.26061 9.42964C8.26358 9.42506 8.26697 9.42079 8.26993 9.41621C8.27658 9.40553 8.28251 9.39439 8.28845 9.38326C8.29127 9.37807 8.29452 9.37318 8.29721 9.36784C8.30286 9.35655 8.30766 9.3448 8.31261 9.33305C8.31501 9.32756 8.31784 9.32222 8.31996 9.31657C8.32448 9.30513 8.32815 9.29323 8.33197 9.28148C8.33395 9.27522 8.33649 9.26912 8.33833 9.26256C8.34144 9.25142 8.34384 9.23967 8.34652 9.22823C8.34808 9.2209 8.3502 9.21373 8.35161 9.20641C8.35373 9.19511 8.355 9.18337 8.35655 9.17192C8.35754 9.16399 8.3591 9.15621 8.3598 9.14812C8.36094 9.13744 8.36094 9.12645 8.36136 9.11546C8.36178 9.10646 8.36263 9.09761 8.36263 9.0883V4.24639C8.39796 3.91909 8.65528 3.65984 8.96686 3.65405C9.12696 3.65115 9.28154 3.7192 9.40095 3.846C9.52586 3.97845 9.5975 4.16155 9.5975 4.34817V11.2724L9.59779 11.2987C9.60075 11.6788 9.83193 12 10.1729 12.0979C10.5116 12.1951 10.8577 12.0415 11.0357 11.7122L11.0391 11.7056C11.465 10.9021 12.6034 9.64265 12.9357 9.37868C12.9742 9.34801 13.0184 9.32344 13.0671 9.30513C13.2836 9.22441 13.5551 9.28163 13.743 9.44765C13.8315 9.52592 13.9325 9.65715 13.9102 9.83766Z"
                fill="#F48C06" />
        </g>
    </symbol>
    <symbol id="phone" viewBox="0 0 20 20">
        <path
            d="M19.2732 0.960872L15.2107 0.0233716C14.7693 -0.0781909 14.3162 0.152278 14.1365 0.56634L12.2615 4.94134C12.0974 5.32415 12.2068 5.77337 12.531 6.03509L14.8982 7.97259C13.4919 10.9687 11.0349 13.4609 7.97632 14.8945L6.03882 12.5273C5.7732 12.2031 5.32788 12.0937 4.94507 12.2577L0.570072 14.1327C0.152103 14.3163 -0.0783657 14.7695 0.0231968 15.2109L0.960697 19.2734C1.05835 19.6952 1.43335 19.9999 1.87476 19.9999C11.8787 19.9999 19.9998 11.8945 19.9998 1.87493C19.9998 1.43743 19.699 1.05853 19.2732 0.960872Z" />
    </symbol>
    <symbol id="star" viewBox="0 0 20 20">
        <path
            d="M9.50647 -1.04623e-07L12.7426 5.55041L19.0211 6.90983L14.7442 11.6996L15.3951 18.0902L9.51568 15.5L3.63937 18.0902L4.28261 11.6996L1.09869e-05 6.90983L6.27695 5.55041L9.50647 -1.04623e-07Z"
            fill="#F9BB1C" />
    </symbol>
    <symbol id="book" viewBox="0 0 20 20">
        <path
            d="M16.575 5.95316e-09L5.40313 1.65938e-08C3.98152 1.79478e-08 2.82429 1.15652 2.82342 2.57812L2.81447 17.1875C2.81352 18.7383 4.07442 20 5.62524 20L16.5627 20C16.9079 20 17.1879 19.7202 17.1881 19.375C17.1883 19.0298 16.9087 18.75 16.5635 18.75L5.62601 18.75C4.76445 18.75 4.06394 18.0491 4.06447 17.1875C4.065 16.3259 4.76636 15.625 5.62793 15.625L16.5654 15.625C16.9106 15.625 17.1906 15.3452 17.1908 15L17.1996 0.625C17.1998 0.279844 16.9202 5.62438e-09 16.575 5.95316e-09ZM4.06611 14.509L4.07342 2.57812C4.07387 1.84461 4.66884 1.25 5.40236 1.25L5.44142 1.25C5.54927 1.25 5.63668 1.33746 5.63662 1.44531L5.62881 14.1861C5.62874 14.2882 5.55006 14.3742 5.44814 14.3807C5.05418 14.4059 4.68201 14.5125 4.34827 14.6839C4.2192 14.7501 4.06602 14.654 4.06611 14.509V14.509Z"
            fill="#3491E7" />
        <path
            d="M16.5646 16.5625L5.62713 16.5625C5.28193 16.5625 5.00195 16.8423 5.00174 17.1875C5.00153 17.5327 5.28116 17.8125 5.62636 17.8125L16.5639 17.8125C16.9091 17.8125 17.189 17.5327 17.1892 17.1875C17.1895 16.8423 16.9098 16.5625 16.5646 16.5625Z"
            fill="#3491E7" />
    </symbol>
    <symbol id="volume" viewBox="0 0 20 20">
        <rect y="9.99902" width="4.61538" height="9.99952" rx="0.55458" />
        <rect x="7.69232" y="5.00049" width="4.61538" height="14.9993" rx="0.55458" />
        <rect x="15.3846" width="4.61538" height="19.999" rx="0.55458" />
    </symbol>
    <symbol id="grid" viewBox="0 0 20 20">
        <rect width="8.88889" height="9.09091" rx="2" fill="#2F327D" />
        <rect y="10.9092" width="8.88889" height="9.09091" rx="2" fill="#2F327D" />
        <rect x="11.1111" width="8.88889" height="9.09091" rx="2" fill="#2F327D" />
        <rect x="11.1111" y="10.9092" width="8.88889" height="9.09091" rx="2" fill="#F48C06" />
    </symbol>
    <symbol id="layer" viewBox="0 0 20 20">
        <rect x="5.71429" y="4.61523" width="14.2857" height="15.3846" rx="2" fill="#2F327D" />
        <rect width="15.1604" height="16.3265" rx="2" fill="#F48C06" />
    </symbol>
    <symbol id="dual-info" viewBox="0 0 20 20">
        <rect width="9.23078" height="5.08475" rx="2.54237" fill="#545AE8" />
        <rect width="9.23078" height="5.08475" rx="2.54237" transform="matrix(1 0 0 -1 10.7692 20)"
            fill="#545AE8" />
        <rect y="6.44043" width="9.23078" height="13.5593" rx="4" fill="#545AE8" />
        <rect width="9.23078" height="13.5593" rx="4" transform="matrix(1 0 0 -1 10.7692 13.5591)"
            fill="#F48C06" />
    </symbol>
    <symbol id="users-class" viewBox="0 0 20 20">
        <path
            d="M8 8.4375C8 9.47314 8.89562 10.3125 10 10.3125C11.1047 10.3125 12 9.47314 12 8.4375C12 7.40186 11.1047 6.5625 10 6.5625C8.89562 6.5625 8 7.40186 8 8.4375ZM15 8.4375C15 9.47314 15.8956 10.3125 17 10.3125C18.1047 10.3125 19 9.47314 19 8.4375C19 7.40186 18.1047 6.5625 17 6.5625C15.8956 6.5625 15 7.40186 15 8.4375ZM3 10.3125C4.10469 10.3125 5 9.47314 5 8.4375C5 7.40186 4.10469 6.5625 3 6.5625C1.89562 6.5625 1 7.40186 1 8.4375C1 9.47314 1.89562 10.3125 3 10.3125ZM18 11.25H16C14.8956 11.25 14 12.0894 14 13.125V14.0625C14 14.5802 14.4478 15 15 15H19C19.5522 15 20 14.5802 20 14.0625V13.125C20 12.0894 19.1044 11.25 18 11.25ZM11 11.25H9C7.89562 11.25 7 12.0894 7 13.125V14.0625C7 14.5802 7.44781 15 8 15H12C12.5522 15 13 14.5802 13 14.0625V13.125C13 12.0894 12.1044 11.25 11 11.25ZM4 11.25H2C0.895625 11.25 0 12.0894 0 13.125V14.0625C0 14.5802 0.447812 15 1 15H5C5.55219 15 6 14.5802 6 14.0625V13.125C6 12.0894 5.10438 11.25 4 11.25ZM3 1.875H17V5.625C17.7713 5.625 18.4681 5.90684 19 6.35654V1.45283C19 0.651855 18.3272 0 17.5 0H2.5C1.67281 0 1 0.651855 1 1.45283V6.35654C1.53188 5.90684 2.22906 5.625 3 5.625V1.875Z"
            fill="#545AE8" />
    </symbol>
    <symbol id="cross-circle" viewBox="0 0 20 20" fill="none">
        <circle cx="10.0019" cy="10.0019" r="9.5" transform="rotate(-10.9619 10.0019 10.0019)"
            stroke="#EE3175" />
        <path d="M13.972 6.62451L5.97195 13.6245M5.97195 6.62451L13.972 13.6245" stroke="#EE3175"
            stroke-linecap="round" />
    </symbol>
    <symbol id="check-circle" viewBox="0 0 20 20" fill="none">
        <circle cx="10" cy="10" r="9.5" stroke="#2DD38E" />
        <path d="M5.5 10.5595L8.30328 13.5L14.5 7" stroke="#2DD38E" stroke-linecap="round" />
    </symbol>
    <symbol id="plane" viewBox="0 0 20 20">
        <g transform="translate(0, 3.5)">
            <path
                d="M19.2366 5.34069L8.89267 0.988479C8.4569 0.805108 7.96459 0.885774 7.60789 1.19889C7.2512 1.51206 7.10201 1.99458 7.21859 2.45814L8.13929 6.11926H12.6472C12.8546 6.11926 13.0228 6.28979 13.0228 6.50015C13.0228 6.71049 12.8546 6.88103 12.6472 6.88103H8.13929L7.21859 10.5421C7.10201 11.0057 7.25117 11.4882 7.60789 11.8014C7.96531 12.1151 8.45768 12.1948 8.8927 12.0118L19.2366 7.65961C19.7076 7.46146 20.0001 7.01718 20.0001 6.50015C20.0001 5.98312 19.7076 5.53881 19.2366 5.34069Z"
                fill="#41BE90" />

            <line x1="0.5" y1="4.44043" x2="6.16667" y2="4.44043" stroke="#41BE90"
                stroke-linecap="round" />
            <line x1="2.55127" y1="6" x2="6.16666" y2="6" stroke="#FBA333" stroke-linecap="round" />
            <line x1="4.34616" y1="7.55957" x2="6.16668" y2="7.55957" stroke="#41BE90"
                stroke-linecap="round" />
        </g>
    </symbol>
    <symbol id="users-dialog" viewBox="0 0 20 20">
        <g transform="translate(0, 1)">
            <path
                d="M6 9C7.93437 9 9.5 7.23867 9.5 5.0625C9.5 2.88633 7.93437 1.125 6 1.125C4.06562 1.125 2.5 2.88633 2.5 5.0625C2.5 7.23867 4.06562 9 6 9ZM8.4 10.125H8.14062C7.49062 10.4766 6.76875 10.6875 6 10.6875C5.23125 10.6875 4.5125 10.4766 3.85937 10.125H3.6C1.6125 10.125 0 11.9391 0 14.175L0 15.1875C0 16.1191 0.671875 16.875 1.5 16.875H10.5C11.3281 16.875 12 16.1191 12 15.1875V14.175C12 11.9391 10.3875 10.125 8.4 10.125ZM15 9C16.6562 9 18 7.48828 18 5.625C18 3.76172 16.6562 2.25 15 2.25C13.3437 2.25 12 3.76172 12 5.625C12 7.48828 13.3437 9 15 9ZM16.5 10.125H16.3812C15.9469 10.2937 15.4875 10.4062 15 10.4062C14.5125 10.4062 14.0531 10.2937 13.6187 10.125H13.5C12.8625 10.125 12.275 10.3324 11.7594 10.6664C12.5219 11.591 13 12.818 13 14.175V15.525C13 15.6023 12.9844 15.6762 12.9812 15.75H18.5C19.3281 15.75 20 14.9941 20 14.0625C20 11.8863 18.4344 10.125 16.5 10.125V10.125Z"
                fill="#2C93F1" />
        </g>
    </symbol>
    <symbol id="chevrone-right" viewBox="0 0 20 20">
        <g transform="translate(3, 0)">
            <path d="M1.37329 1.4541L10.3733 9.9541L1.37329 18.4541" stroke="#1EA4CE"
                stroke-width="4" />
        </g>
    </symbol>
    <symbol id="arrow-right" viewBox="0 0 20 20">
        <g transform="translate(0, 2.5)">
            <path
                d="M19.7071 8.07137C20.0976 7.68084 20.0976 7.04768 19.7071 6.65715L13.3431 0.293191C12.9526 -0.0973333 12.3195 -0.0973333 11.9289 0.293191C11.5384 0.683715 11.5384 1.31688 11.9289 1.7074L17.5858 7.36426L11.9289 13.0211C11.5384 13.4116 11.5384 14.0448 11.9289 14.4353C12.3195 14.8259 12.9526 14.8259 13.3431 14.4353L19.7071 8.07137ZM0 7.36426L-8.74228e-08 8.36426L19 8.36426L19 7.36426L19 6.36426L8.74228e-08 6.36426L0 7.36426Z"
            />
        </g>
    </symbol>
    <symbol id="moon" viewBox="0 0 20 20">
        <path
            d="M10.0001 18.3333C14.6024 18.3333 18.3334 14.6023 18.3334 9.99999C18.3334 9.61441 17.7555 9.55066 17.5561 9.88066C16.6075 11.4505 14.8847 12.5 12.9167 12.5C9.92516 12.5 7.50008 10.0749 7.50008 7.08332C7.50008 5.11536 8.54958 3.39253 10.1194 2.44396C10.4494 2.24455 10.3857 1.66666 10.0001 1.66666C5.39771 1.66666 1.66675 5.39761 1.66675 9.99999C1.66675 14.6023 5.39771 18.3333 10.0001 18.3333Z"
            fill="#1C274C" />
    </symbol>
    <symbol id="sun" viewBox="0 0 20 20">
        <path
            d="M9.99981 4.98349C7.2293 4.98349 4.9834 7.22939 4.9834 9.9999C4.9834 12.7707 7.22934 15.0166 9.99981 15.0166C12.7703 15.0166 15.0165 12.7707 15.0165 9.9999C15.0165 7.22939 12.7703 4.98349 9.99981 4.98349Z"
            fill="black" />
        <path
            d="M20 9.99991C16.9489 8.0842 16.1698 6.34717 17.0678 2.93225C13.6532 3.83049 11.9158 3.05084 9.99984 0.000335693C8.08414 3.05084 6.34711 3.83049 2.93219 2.93225C3.83047 6.34721 3.05113 8.0842 0 9.99991C3.05113 11.9159 3.83047 13.6532 2.93223 17.0678C6.34715 16.1699 8.08418 16.9492 9.99988 19.9998C11.9159 16.9492 13.6532 16.1699 17.0678 17.0678C16.1698 13.6533 16.9489 11.9159 20 9.99991ZM9.99984 16.5534C6.38008 16.5534 3.44664 13.6194 3.44664 9.99991C3.44664 6.38077 6.38008 3.4467 9.99984 3.4467C13.619 3.4467 16.5533 6.38077 16.5533 9.99991C16.5534 13.6194 13.619 16.5534 9.99984 16.5534Z"
            fill="black" />
    </symbol>


</svg>