<svg width="20" height="20" viewBox="0 0 20 20" fill="none" xmlns="http://www.w3.org/2000/svg">
<path d="M9.99981 4.98349C7.2293 4.98349 4.9834 7.22939 4.9834 9.9999C4.9834 12.7707 7.22934 15.0166 9.99981 15.0166C12.7703 15.0166 15.0165 12.7707 15.0165 9.9999C15.0165 7.22939 12.7703 4.98349 9.99981 4.98349Z" fill="black"/>
<path d="M20 9.99991C16.9489 8.0842 16.1698 6.34717 17.0678 2.93225C13.6532 3.83049 11.9158 3.05084 9.99984 0.000335693C8.08414 3.05084 6.34711 3.83049 2.93219 2.93225C3.83047 6.34721 3.05113 8.0842 0 9.99991C3.05113 11.9159 3.83047 13.6532 2.93223 17.0678C6.34715 16.1699 8.08418 16.9492 9.99988 19.9998C11.9159 16.9492 13.6532 16.1699 17.0678 17.0678C16.1698 13.6533 16.9489 11.9159 20 9.99991ZM9.99984 16.5534C6.38008 16.5534 3.44664 13.6194 3.44664 9.99991C3.44664 6.38077 6.38008 3.4467 9.99984 3.4467C13.619 3.4467 16.5533 6.38077 16.5533 9.99991C16.5534 13.6194 13.619 16.5534 9.99984 16.5534Z" fill="black"/>
</svg>
