<svg width="601" height="450" viewBox="0 0 601 450" fill="none" xmlns="http://www.w3.org/2000/svg">
<circle cx="5.70718" cy="88.4617" r="5" transform="rotate(-8.81526 5.70718 88.4617)" fill="#DCE2EE"/>
<circle cx="14.9021" cy="147.753" r="5" transform="rotate(-8.81526 14.9021 147.753)" fill="#DCE2EE"/>
<circle cx="24.0971" cy="207.044" r="5" transform="rotate(-8.81526 24.0971 207.044)" fill="#DCE2EE"/>
<circle cx="33.292" cy="266.335" r="5" transform="rotate(-8.81526 33.292 266.335)" fill="#DCE2EE"/>
<circle cx="42.487" cy="325.627" r="5" transform="rotate(-8.81526 42.487 325.627)" fill="#DCE2EE"/>
<circle cx="51.6819" cy="384.918" r="5" transform="rotate(-8.81526 51.6819 384.918)" fill="#DCE2EE"/>
<circle cx="60.8769" cy="444.209" r="5" transform="rotate(-8.81526 60.8769 444.209)" fill="#DCE2EE"/>
<circle cx="64.9984" cy="79.2668" r="5" transform="rotate(-8.81526 64.9984 79.2668)" fill="#DCE2EE"/>
<circle cx="74.1934" cy="138.558" r="5" transform="rotate(-8.81526 74.1934 138.558)" fill="#DCE2EE"/>
<circle cx="83.3883" cy="197.849" r="5" transform="rotate(-8.81526 83.3883 197.849)" fill="#DCE2EE"/>
<circle cx="92.5833" cy="257.14" r="5" transform="rotate(-8.81526 92.5833 257.14)" fill="#DCE2EE"/>
<circle cx="101.778" cy="316.432" r="5" transform="rotate(-8.81526 101.778 316.432)" fill="#DCE2EE"/>
<circle cx="110.973" cy="375.723" r="5" transform="rotate(-8.81526 110.973 375.723)" fill="#DCE2EE"/>
<circle cx="120.168" cy="435.014" r="5" transform="rotate(-8.81526 120.168 435.014)" fill="#DCE2EE"/>
<circle cx="124.29" cy="70.072" r="5" transform="rotate(-8.81526 124.29 70.072)" fill="#DCE2EE"/>
<circle cx="133.485" cy="129.363" r="5" transform="rotate(-8.81526 133.485 129.363)" fill="#DCE2EE"/>
<circle cx="142.68" cy="188.654" r="5" transform="rotate(-8.81526 142.68 188.654)" fill="#DCE2EE"/>
<circle cx="151.875" cy="247.946" r="5" transform="rotate(-8.81526 151.875 247.946)" fill="#DCE2EE"/>
<circle cx="161.069" cy="307.237" r="5" transform="rotate(-8.81526 161.069 307.237)" fill="#DCE2EE"/>
<circle cx="170.264" cy="366.528" r="5" transform="rotate(-8.81526 170.264 366.528)" fill="#DCE2EE"/>
<circle cx="179.459" cy="425.819" r="5" transform="rotate(-8.81526 179.459 425.819)" fill="#DCE2EE"/>
<circle cx="183.581" cy="60.8767" r="5" transform="rotate(-8.81526 183.581 60.8767)" fill="#DCE2EE"/>
<circle cx="192.776" cy="120.168" r="5" transform="rotate(-8.81526 192.776 120.168)" fill="#DCE2EE"/>
<circle cx="201.971" cy="179.459" r="5" transform="rotate(-8.81526 201.971 179.459)" fill="#DCE2EE"/>
<circle cx="211.166" cy="238.751" r="5" transform="rotate(-8.81526 211.166 238.751)" fill="#DCE2EE"/>
<circle cx="220.361" cy="298.042" r="5" transform="rotate(-8.81526 220.361 298.042)" fill="#DCE2EE"/>
<circle cx="229.556" cy="357.333" r="5" transform="rotate(-8.81526 229.556 357.333)" fill="#DCE2EE"/>
<circle cx="238.751" cy="416.624" r="5" transform="rotate(-8.81526 238.751 416.624)" fill="#DCE2EE"/>
<circle cx="242.872" cy="51.6819" r="5" transform="rotate(-8.81526 242.872 51.6819)" fill="#DCE2EE"/>
<circle cx="252.067" cy="110.973" r="5" transform="rotate(-8.81526 252.067 110.973)" fill="#DCE2EE"/>
<circle cx="261.262" cy="170.264" r="5" transform="rotate(-8.81526 261.262 170.264)" fill="#DCE2EE"/>
<circle cx="270.457" cy="229.556" r="5" transform="rotate(-8.81526 270.457 229.556)" fill="#DCE2EE"/>
<circle cx="279.652" cy="288.847" r="5" transform="rotate(-8.81526 279.652 288.847)" fill="#DCE2EE"/>
<circle cx="288.847" cy="348.138" r="5" transform="rotate(-8.81526 288.847 348.138)" fill="#DCE2EE"/>
<circle cx="298.042" cy="407.429" r="5" transform="rotate(-8.81526 298.042 407.429)" fill="#DCE2EE"/>
<circle cx="302.163" cy="42.4871" r="5" transform="rotate(-8.81526 302.163 42.4871)" fill="#DCE2EE"/>
<circle cx="311.358" cy="101.778" r="5" transform="rotate(-8.81526 311.358 101.778)" fill="#DCE2EE"/>
<circle cx="320.553" cy="161.07" r="5" transform="rotate(-8.81526 320.553 161.07)" fill="#DCE2EE"/>
<circle cx="329.748" cy="220.361" r="5" transform="rotate(-8.81526 329.748 220.361)" fill="#DCE2EE"/>
<circle cx="338.943" cy="279.652" r="5" transform="rotate(-8.81526 338.943 279.652)" fill="#DCE2EE"/>
<circle cx="348.138" cy="338.943" r="5" transform="rotate(-8.81526 348.138 338.943)" fill="#DCE2EE"/>
<circle cx="357.333" cy="398.235" r="5" transform="rotate(-8.81526 357.333 398.235)" fill="#DCE2EE"/>
<circle cx="361.455" cy="33.2922" r="5" transform="rotate(-8.81526 361.455 33.2922)" fill="#DCE2EE"/>
<circle cx="370.65" cy="92.5833" r="5" transform="rotate(-8.81526 370.65 92.5833)" fill="#DCE2EE"/>
<circle cx="379.845" cy="151.875" r="5" transform="rotate(-8.81526 379.845 151.875)" fill="#DCE2EE"/>
<circle cx="389.04" cy="211.166" r="5" transform="rotate(-8.81526 389.04 211.166)" fill="#DCE2EE"/>
<circle cx="398.235" cy="270.457" r="5" transform="rotate(-8.81526 398.235 270.457)" fill="#DCE2EE"/>
<circle cx="407.429" cy="329.748" r="5" transform="rotate(-8.81526 407.429 329.748)" fill="#DCE2EE"/>
<circle cx="416.624" cy="389.039" r="5" transform="rotate(-8.81526 416.624 389.039)" fill="#DCE2EE"/>
<circle cx="420.746" cy="24.0969" r="5" transform="rotate(-8.81526 420.746 24.0969)" fill="#DCE2EE"/>
<circle cx="429.941" cy="83.3884" r="5" transform="rotate(-8.81526 429.941 83.3884)" fill="#DCE2EE"/>
<circle cx="439.136" cy="142.679" r="5" transform="rotate(-8.81526 439.136 142.679)" fill="#DCE2EE"/>
<circle cx="448.331" cy="201.971" r="5" transform="rotate(-8.81526 448.331 201.971)" fill="#DCE2EE"/>
<circle cx="457.526" cy="261.262" r="5" transform="rotate(-8.81526 457.526 261.262)" fill="#DCE2EE"/>
<circle cx="466.721" cy="320.553" r="5" transform="rotate(-8.81526 466.721 320.553)" fill="#DCE2EE"/>
<circle cx="475.916" cy="379.844" r="5" transform="rotate(-8.81526 475.916 379.844)" fill="#DCE2EE"/>
<circle cx="480.037" cy="14.9021" r="5" transform="rotate(-8.81526 480.037 14.9021)" fill="#DCE2EE"/>
<circle cx="489.232" cy="74.1936" r="5" transform="rotate(-8.81526 489.232 74.1936)" fill="#DCE2EE"/>
<circle cx="498.427" cy="133.485" r="5" transform="rotate(-8.81526 498.427 133.485)" fill="#DCE2EE"/>
<circle cx="507.622" cy="192.776" r="5" transform="rotate(-8.81526 507.622 192.776)" fill="#DCE2EE"/>
<circle cx="516.817" cy="252.067" r="5" transform="rotate(-8.81526 516.817 252.067)" fill="#DCE2EE"/>
<circle cx="526.012" cy="311.359" r="5" transform="rotate(-8.81526 526.012 311.359)" fill="#DCE2EE"/>
<circle cx="535.207" cy="370.65" r="5" transform="rotate(-8.81526 535.207 370.65)" fill="#DCE2EE"/>
<circle cx="539.328" cy="5.70728" r="5" transform="rotate(-8.81526 539.328 5.70728)" fill="#DCE2EE"/>
<circle cx="548.523" cy="64.9983" r="5" transform="rotate(-8.81526 548.523 64.9983)" fill="#DCE2EE"/>
<circle cx="557.718" cy="124.29" r="5" transform="rotate(-8.81526 557.718 124.29)" fill="#DCE2EE"/>
<circle cx="566.913" cy="183.581" r="5" transform="rotate(-8.81526 566.913 183.581)" fill="#DCE2EE"/>
<circle cx="576.108" cy="242.872" r="5" transform="rotate(-8.81526 576.108 242.872)" fill="#DCE2EE"/>
<circle cx="585.303" cy="302.163" r="5" transform="rotate(-8.81526 585.303 302.163)" fill="#DCE2EE"/>
<circle cx="594.498" cy="361.455" r="5" transform="rotate(-8.81526 594.498 361.455)" fill="#DCE2EE"/>
</svg>
