<svg width="20" height="20" viewBox="0 0 20 20" fill="none" xmlns="http://www.w3.org/2000/svg">
    <path
        d="M12.217 2.24929L10.996 1.20879C10.2782 0.597069 9.22178 0.597069 8.50396 1.20879L7.28285 2.24932C6.97525 2.51146 6.59276 2.66981 6.18989 2.70196L4.59205 2.8294C3.65192 2.90442 2.90417 3.65099 2.82915 4.59112L2.70122 6.19024C2.66908 6.59311 2.51176 6.97541 2.24963 7.28301L1.20865 8.5042C0.596926 9.22203 0.597212 10.2776 1.20894 10.9954L2.24898 12.2166C2.51111 12.5242 2.66995 12.9065 2.7021 13.3094L2.83003 14.9085C2.90505 15.8486 3.65064 16.5952 4.59077 16.6702L6.19038 16.7977C6.59325 16.8298 6.97555 16.9882 7.28316 17.2503L8.50386 18.2909C9.22168 18.9026 10.2782 18.9025 10.996 18.2907L12.2167 17.2502C12.5244 16.9881 12.9067 16.83 13.3095 16.7978L14.9091 16.6702C15.8493 16.5952 16.5949 15.8484 16.6699 14.9083L16.7978 13.3093C16.83 12.9064 16.9888 12.5238 17.2509 12.2162L18.291 10.9954C18.9027 10.2775 18.9026 9.22164 18.2909 8.50382L17.2508 7.28319C16.9887 6.97559 16.8297 6.5931 16.7975 6.19024L16.6704 4.59093C16.5953 3.6508 15.8486 2.90452 14.9085 2.8295L13.3094 2.70206C12.9066 2.66991 12.5246 2.51143 12.217 2.24929Z"
        fill="#0689FF" fill-opacity="0.16" />
    <path
        d="M12.75 7.74981L8.74995 11.7498L6.74995 9.74981M10.996 1.20879L12.217 2.24929C12.5246 2.51143 12.9066 2.66991 13.3094 2.70206L14.9085 2.8295C15.8486 2.90452 16.5953 3.6508 16.6704 4.59093L16.7975 6.19024C16.8297 6.5931 16.9887 6.97559 17.2508 7.28319L18.2909 8.50382C18.9026 9.22164 18.9027 10.2775 18.291 10.9954L17.2509 12.2162C16.9888 12.5238 16.83 12.9064 16.7978 13.3093L16.6699 14.9083C16.5949 15.8484 15.8493 16.5952 14.9091 16.6702L13.3095 16.7978C12.9067 16.83 12.5244 16.9881 12.2167 17.2502L10.996 18.2907C10.2782 18.9025 9.22168 18.9026 8.50386 18.2909L7.28316 17.2503C6.97555 16.9882 6.59325 16.8298 6.19038 16.7977L4.59077 16.6702C3.65064 16.5952 2.90505 15.8486 2.83003 14.9085L2.7021 13.3094C2.66995 12.9065 2.51111 12.5242 2.24898 12.2166L1.20894 10.9954C0.597212 10.2776 0.596926 9.22203 1.20865 8.5042L2.24963 7.28301C2.51176 6.97541 2.66908 6.59311 2.70122 6.19024L2.82915 4.59112C2.90417 3.65099 3.65192 2.90442 4.59205 2.8294L6.18989 2.70196C6.59276 2.66981 6.97525 2.51146 7.28285 2.24932L8.50396 1.20879C9.22178 0.597069 10.2782 0.597069 10.996 1.20879Z"
        stroke="#1EA7FF" stroke-width="1.5" stroke-linecap="round" stroke-linejoin="round" />
</svg>