<svg width="45" height="32" viewBox="0 0 45 32" fill="none" xmlns="http://www.w3.org/2000/svg">
<path d="M13.465 15.8469C17.806 15.8469 21.3195 12.3026 21.3195 7.92347C21.3195 3.54434 17.806 0 13.465 0C9.12392 0 5.61041 3.54434 5.61041 7.92347C5.61041 12.3026 9.12392 15.8469 13.465 15.8469ZM18.851 18.1108H18.2689C16.8102 18.8182 15.1902 19.2427 13.465 19.2427C11.7398 19.2427 10.1268 18.8182 8.66106 18.1108H8.07898C3.61871 18.1108 0 21.7612 0 26.2606V28.2981C0 30.1728 1.5078 31.6939 3.36624 31.6939H23.5637C25.4222 31.6939 26.9299 30.1728 26.9299 28.2981V26.2606C26.9299 21.7612 23.3112 18.1108 18.851 18.1108ZM33.6624 15.8469C37.3793 15.8469 40.3949 12.8049 40.3949 9.05539C40.3949 5.30589 37.3793 2.26385 33.6624 2.26385C29.9455 2.26385 26.9299 5.30589 26.9299 9.05539C26.9299 12.8049 29.9455 15.8469 33.6624 15.8469ZM37.0287 18.1108H36.7622C35.7874 18.4504 34.7565 18.6767 33.6624 18.6767C32.5684 18.6767 31.5375 18.4504 30.5627 18.1108H30.2962C28.8655 18.1108 27.5471 18.5282 26.3899 19.2003C28.1011 21.0609 29.1741 23.5299 29.1741 26.2606V28.9773C29.1741 29.1329 29.139 29.2815 29.132 29.43H41.517C43.3755 29.43 44.8832 27.909 44.8832 26.0343C44.8832 21.6551 41.3697 18.1108 37.0287 18.1108Z" fill="#2C93F1"/>
</svg>
