<svg width="15" height="20" viewBox="0 0 15 20" fill="none" xmlns="http://www.w3.org/2000/svg">
<path d="M7.03906 0C4.41906 0 2.28906 2.13 2.28906 4.75C2.28906 7.32 4.29906 9.4 6.91906 9.49C6.99906 9.48 7.07906 9.48 7.13906 9.49C7.15906 9.49 7.16906 9.49 7.18906 9.49C7.19906 9.49 7.19906 9.49 7.20906 9.49C9.76906 9.4 11.7791 7.32 11.7891 4.75C11.7891 2.13 9.65906 0 7.03906 0Z" fill="#8B5CF6"/>
<path opacity="0.4" d="M12.12 12.1599C9.33 10.2999 4.78 10.2999 1.97 12.1599C0.7 12.9999 0 14.1499 0 15.3799C0 16.6099 0.7 17.7499 1.96 18.5899C3.36 19.5299 5.2 19.9999 7.04 19.9999C8.88 19.9999 10.72 19.5299 12.12 18.5899C13.38 17.7399 14.08 16.5999 14.08 15.3599C14.07 14.1399 13.38 12.9899 12.12 12.1599Z" fill="#8B5CF6"/>
</svg>
