<svg width="49" height="20" viewBox="0 0 49 20" fill="none" xmlns="http://www.w3.org/2000/svg">
<path d="M17.0391 15.1307C17.0391 13.7779 17.4712 12.6706 18.3355 11.8089C19.1998 10.9472 20.3491 10.5164 21.7835 10.5164C23.2178 10.5164 24.3626 10.9472 25.2177 11.8089C26.082 12.6706 26.5141 13.7779 26.5141 15.1307C26.5141 16.4742 26.082 17.5768 25.2177 18.4385C24.3626 19.3003 23.2178 19.7311 21.7835 19.7311C20.3491 19.7311 19.1998 19.3003 18.3355 18.4385C17.4712 17.5768 17.0391 16.4742 17.0391 15.1307ZM18.9286 15.1307C18.9286 16.048 19.1768 16.7892 19.6733 17.3545C20.1698 17.9104 20.8732 18.1884 21.7835 18.1884C22.7029 18.1884 23.4109 17.9058 23.9074 17.3406C24.3948 16.7846 24.6384 16.048 24.6384 15.1307C24.6384 14.2134 24.3902 13.4721 23.8937 12.9069C23.4063 12.3417 22.7029 12.0591 21.7835 12.0591C20.8824 12.0591 20.179 12.3463 19.6733 12.9208C19.1768 13.486 18.9286 14.2226 18.9286 15.1307Z" fill="#1D1D20"/>
<path d="M8.65039 10.5178H12.4617C14.9931 10.5178 16.2588 11.4969 16.2588 13.4551C16.2588 14.5441 15.8528 15.3513 15.0409 15.8766C15.6713 16.0581 15.9865 16.5787 15.9865 17.4384V19.731H14.1238V17.4384C14.1238 17.0946 14.057 16.851 13.9232 16.7077C13.7991 16.5644 13.565 16.4928 13.2211 16.4928H10.5131V19.731H8.65039V10.5178ZM10.5131 14.931H12.4617C13.0635 14.931 13.5364 14.8068 13.8803 14.5584C14.2241 14.3005 14.3961 13.9328 14.3961 13.4551C14.3961 12.5286 13.7513 12.0653 12.4617 12.0653H10.5131V14.931Z" fill="#1D1D20"/>
<path d="M3.81135 10.5178C6.3427 10.5178 7.60838 11.4969 7.60838 13.4551C7.60838 14.3626 7.29793 15.0981 6.67703 15.6617C6.06569 16.2157 5.11046 16.4928 3.81135 16.4928H1.86269V19.731H0V10.5178H3.81135ZM1.86269 12.0653V14.931H3.81135C4.41314 14.931 4.88598 14.8068 5.22986 14.5584C5.57374 14.3005 5.74568 13.9328 5.74568 13.4551C5.74568 12.5286 5.10091 12.0653 3.81135 12.0653H1.86269Z" fill="#1D1D20"/>
<path d="M40.9949 0L43.7747 4.25553L46.54 0H48.632L44.6917 5.9033V9.21315H42.829V5.9033L38.8887 0H40.9949Z" fill="#1D1D20"/>
<path d="M31.2891 0H35.1004C37.6318 0 38.8974 0.979107 38.8974 2.93732C38.8974 4.02628 38.4915 4.83344 37.6795 5.35882C38.31 5.54031 38.6252 6.06091 38.6252 6.92061V9.21315H36.7625V6.92061C36.7625 6.57673 36.6956 6.33315 36.5619 6.18986C36.4377 6.04658 36.2037 5.97494 35.8598 5.97494H33.1518V9.21315H31.2891V0ZM33.1518 4.41314H35.1004C35.7022 4.41314 36.175 4.28896 36.5189 4.04061C36.8628 3.78269 37.0347 3.41493 37.0347 2.93732C37.0347 2.01075 36.39 1.54747 35.1004 1.54747H33.1518V4.41314Z" fill="#1D1D20"/>
<path d="M20.6914 4.61433C20.6914 3.26153 21.1283 2.15428 22.0021 1.29257C22.8759 0.430856 24.0378 0 25.488 0C26.9381 0 28.0954 0.430856 28.9599 1.29257C29.8337 2.15428 30.2706 3.26153 30.2706 4.61433C30.2706 5.95785 29.8337 7.06047 28.9599 7.92218C28.0954 8.7839 26.9381 9.21475 25.488 9.21475C24.0378 9.21475 22.8759 8.7839 22.0021 7.92218C21.1283 7.06047 20.6914 5.95785 20.6914 4.61433ZM22.6017 4.61433C22.6017 5.53163 22.8526 6.27289 23.3546 6.8381C23.8566 7.39404 24.5677 7.67201 25.488 7.67201C26.4175 7.67201 27.1333 7.38941 27.6353 6.8242C28.1279 6.26825 28.3743 5.53163 28.3743 4.61433C28.3743 3.69702 28.1233 2.95576 27.6213 2.39055C27.1286 1.82535 26.4175 1.54274 25.488 1.54274C24.577 1.54274 23.8659 1.82998 23.3546 2.40445C22.8526 2.96966 22.6017 3.70629 22.6017 4.61433Z" fill="#1D1D20"/>
<path d="M20.4309 0V1.54747H15.6596V4.02628H19.7002V5.58807H15.6596V9.21315H13.7969V0H20.4309Z" fill="#1D1D20"/>
<path d="M10.881 7.66569H10.8809V1.54747V0H12.7436V1.54747V7.66569V9.21315H10.881V7.66569Z" fill="#1D1D20"/>
<path d="M0 9.21315L3.89732 0H5.97494L9.85793 9.21315H7.86629L7.23584 7.65136H2.63642L2.00597 9.21315H0ZM6.60539 6.08957L4.9433 1.93433L3.26687 6.08957H6.60539Z" fill="#1D1D20"/>
</svg>
