<svg width="21" height="21" viewBox="0 0 21 21" fill="none" xmlns="http://www.w3.org/2000/svg">
<g clip-path="url(#clip0_6001_311)">
<rect width="20.0434" height="20.0434" fill="white"/>
<g filter="url(#filter0_ii_6001_311)">
<path d="M20.043 4.58984C17.7587 6.19286 16.1952 8.50394 15.5508 10.8379C15.3028 11.7361 15.5316 12.1141 15.667 12.291C15.8154 12.4849 16.1322 12.7399 16.9658 12.7764C18.0656 12.8244 19.0913 12.7583 20.043 12.5957V20.043H0V11.3242C0.247391 11.4266 0.495329 11.5038 0.741211 11.5547C1.37523 11.6858 2.51835 11.6527 3.35742 11.4189C6.90473 10.4304 10.0258 10.7903 12.3906 12.1172C12.9508 12.4315 12.4877 13.2694 11.9062 12.8926C9.42506 11.2837 6.89357 11.9154 5.35449 12.6602C4.75358 12.9509 3.99773 13.9008 4.98633 14.9863C5.90562 15.9957 6.32343 16.3433 7.48633 17.041C8.11799 17.42 8.78679 17.654 9.34766 17.6992C10.0742 17.7577 10.7428 17.583 11.3242 17.2148C12.8373 16.2566 14.1733 14.378 14.541 12.0205C15.5504 5.54619 7.48668 2.7159 1.86523 2.46387C1.24339 2.43599 0.622942 2.41946 0 2.41113V0H20.043V4.58984ZM18.9229 13.7646C18.38 13.6678 17.2245 13.6049 16.1904 13.7646C14.0583 14.0942 15.1403 16.7775 16.2676 17.0596C17.2755 17.3115 19.02 15.3155 19.3496 14.54C19.4567 14.288 19.4656 13.8616 18.9229 13.7646Z" fill="url(#paint0_linear_6001_311)"/>
</g>
</g>
<defs>
<filter id="filter0_ii_6001_311" x="-0.318149" y="-0.318149" width="20.8065" height="20.6156" filterUnits="userSpaceOnUse" color-interpolation-filters="sRGB">
<feFlood flood-opacity="0" result="BackgroundImageFix"/>
<feBlend mode="normal" in="SourceGraphic" in2="BackgroundImageFix" result="shape"/>
<feColorMatrix in="SourceAlpha" type="matrix" values="0 0 0 0 0 0 0 0 0 0 0 0 0 0 0 0 0 0 127 0" result="hardAlpha"/>
<feOffset dx="0.445409" dy="0.254519"/>
<feGaussianBlur stdDeviation="0.477223"/>
<feComposite in2="hardAlpha" operator="arithmetic" k2="-1" k3="1"/>
<feColorMatrix type="matrix" values="0 0 0 0 1 0 0 0 0 1 0 0 0 0 1 0 0 0 0.25 0"/>
<feBlend mode="normal" in2="shape" result="effect1_innerShadow_6001_311"/>
<feColorMatrix in="SourceAlpha" type="matrix" values="0 0 0 0 0 0 0 0 0 0 0 0 0 0 0 0 0 0 127 0" result="hardAlpha"/>
<feOffset dx="-0.318149" dy="-0.318149"/>
<feGaussianBlur stdDeviation="0.604483"/>
<feComposite in2="hardAlpha" operator="arithmetic" k2="-1" k3="1"/>
<feColorMatrix type="matrix" values="0 0 0 0 0 0 0 0 0 0 0 0 0 0 0 0 0 0 0.1 0"/>
<feBlend mode="normal" in2="effect1_innerShadow_6001_311" result="effect2_innerShadow_6001_311"/>
</filter>
<linearGradient id="paint0_linear_6001_311" x1="2.96574" y1="0.678437" x2="19.3258" y2="20.043" gradientUnits="userSpaceOnUse">
<stop stop-color="#C4B5FD"/>
<stop offset="1" stop-color="#A78BFA"/>
</linearGradient>
<clipPath id="clip0_6001_311">
<rect width="20.0434" height="20.0434" rx="4.38449" fill="white"/>
</clipPath>
</defs>
</svg>
