<svg width="194" height="195" viewBox="0 0 194 195" fill="none" xmlns="http://www.w3.org/2000/svg">
<rect width="193.374" height="186.928" rx="12.8916" fill="#EEEEEE"/>
<mask id="mask0_163_91" style="mask-type:alpha" maskUnits="userSpaceOnUse" x="0" y="0" width="194" height="187">
<rect x="0.5" y="0.5" width="192.374" height="185.928" rx="12.3916" fill="#C4C4C4" stroke="black"/>
</mask>
<g mask="url(#mask0_163_91)">
<path d="M96.9755 107.332C121.343 107.332 141.092 87.7334 141.092 63.5517C141.092 39.37 121.343 19.7715 96.9755 19.7715C72.608 19.7715 52.859 39.37 52.859 63.5517C52.859 87.7334 72.608 107.332 96.9755 107.332ZM127.857 118.277H122.101C114.45 121.766 105.937 123.749 96.9755 123.749C88.0143 123.749 79.5357 121.766 71.8498 118.277H66.094C40.5202 118.277 19.7717 138.867 19.7717 164.246V178.475C19.7717 187.539 27.1819 194.892 36.3154 194.892H157.636C166.769 194.892 174.179 187.539 174.179 178.475V164.246C174.179 138.867 153.431 118.277 127.857 118.277Z" fill="#BABABA"/>
</g>
</svg>
